<?xml version='1.0' encoding='utf-8'?>
<svg xmlns="http://www.w3.org/2000/svg" id="svg8" version="1.1" viewBox="0 0 7.9374996 7.9375002" height="30" width="30"> <defs id="defs2"/> <metadata id="metadata5"> </metadata> <g id="layer1"> <path d="M 7.3998241,3.5614025 A 3.4479005,3.4479005 0 0 1 4.4073854,7.4112528 3.4479005,3.4479005 0 0 1 0.55753511,4.4188142 3.4479005,3.4479005 0 0 1 3.5499737,0.5689639 3.4479005,3.4479005 0 0 1 7.3998241,3.5614025 Z" style="fill:#ff6600;stroke:#2b1100;stroke-width:0.692672;stroke-linecap:butt;stroke-linejoin:bevel;stroke-miterlimit:4;stroke-dasharray:none;paint-order:stroke fill markers" id="path1558"/> <path d="M 7.0290487,2.3830916 A 3.7648594,3.7648594 0 0 1 7.097462,2.7658307 3.7648594,3.7648594 0 0 1 3.8296821,6.9691351 3.7648594,3.7648594 0 0 1 1.7915279,6.6552946 3.4479005,3.4479005 0 0 0 4.4073135,7.4114566 3.4479005,3.4479005 0 0 0 7.3996679,3.5617146 3.4479005,3.4479005 0 0 0 7.0290487,2.3830916 Z" style="fill:#aa4400;stroke:#000000;stroke-width:0;stroke-linecap:butt;stroke-linejoin:bevel;stroke-miterlimit:4;stroke-dasharray:none;paint-order:stroke fill markers" id="path1558-6"/> <g transform="matrix(0.38761522,1.0764884,-1.0764884,0.38761522,6.1921844,-4.6190417)" id="g4092"> <path id="path4006" style="fill:#00d400;stroke:#2b1100;stroke-width:0.529167;stroke-linecap:butt;stroke-linejoin:round;stroke-miterlimit:4;stroke-dasharray:none;paint-order:stroke markers fill" d="M 5.0280263,2.0533771 C 5.0681024,2.2524426 4.9194739,2.4050303 4.8536465,2.5780119 4.8542395,2.693075 4.9159048,2.8174203 5.0376055,2.9508902 4.8405235,2.9886277 4.6784386,2.8752663 4.5129708,2.7765106 4.3659063,2.7674242 4.2491655,2.852093 4.1400924,2.9604695 4.0159825,2.7839629 4.2241315,2.6104252 4.3144722,2.4358348 4.3112519,2.3203724 4.2321293,2.1933738 4.1305132,2.0629565 c 0.1899237,-0.011132 0.3478001,0.033492 0.5246346,0.1743796 0.1651611,0.00272 0.2700723,-0.088969 0.3728785,-0.183959 z"/> </g> <ellipse transform="matrix(0.72623043,-0.68745135,0.38047318,0.92479196,0,0)" ry="0.37874252" rx="0.73293972" cy="3.1198142" cx="0.77940506" id="path4013" style="fill:#ffb380;stroke:none;stroke-width:0.649678;stroke-linecap:round;stroke-linejoin:round;stroke-miterlimit:4;stroke-dasharray:none;paint-order:stroke fill markers"/> <g transform="matrix(1.1312094,0.17157488,-0.17157488,1.1312094,0.08942202,-1.3893821)" id="g4114"> <circle style="fill:#803300;stroke:none;stroke-width:0.042794;stroke-linecap:round;stroke-linejoin:round;stroke-miterlimit:4;stroke-dasharray:none;paint-order:stroke fill markers" id="path4015" cx="5.7452116" cy="5.2691903" r="0.075462364"/> <circle r="0.075462364" cy="4.957931" cx="5.9647517" id="path4015-0" style="fill:#803300;stroke:none;stroke-width:0.042794;stroke-linecap:round;stroke-linejoin:round;stroke-miterlimit:4;stroke-dasharray:none;paint-order:stroke fill markers"/> <circle r="0.075462364" cy="5.2366066" cx="6.0167689" id="path4015-8" style="fill:#803300;stroke:none;stroke-width:0.042794;stroke-linecap:round;stroke-linejoin:round;stroke-miterlimit:4;stroke-dasharray:none;paint-order:stroke fill markers"/> <circle r="0.075462364" cy="5.5520682" cx="5.7937989" id="path4015-07" style="fill:#803300;stroke:none;stroke-width:0.042794;stroke-linecap:round;stroke-linejoin:round;stroke-miterlimit:4;stroke-dasharray:none;paint-order:stroke fill markers"/> <circle r="0.075462364" cy="4.872128" cx="6.232605" id="path4015-9" style="fill:#803300;stroke:none;stroke-width:0.042794;stroke-linecap:round;stroke-linejoin:round;stroke-miterlimit:4;stroke-dasharray:none;paint-order:stroke fill markers"/> <circle style="fill:#803300;stroke:none;stroke-width:0.042794;stroke-linecap:round;stroke-linejoin:round;stroke-miterlimit:4;stroke-dasharray:none;paint-order:stroke fill markers" id="path4015-07-7" cx="5.5324197" cy="5.820519" r="0.075462364"/> <circle style="fill:#803300;stroke:none;stroke-width:0.042794;stroke-linecap:round;stroke-linejoin:round;stroke-miterlimit:4;stroke-dasharray:none;paint-order:stroke fill markers" id="path4015-07-6" cx="5.1799345" cy="6.1133547" r="0.075462364"/> <circle style="fill:#803300;stroke:none;stroke-width:0.042794;stroke-linecap:round;stroke-linejoin:round;stroke-miterlimit:4;stroke-dasharray:none;paint-order:stroke fill markers" id="path4015-07-4" cx="5.5236449" cy="5.5246458" r="0.075462364"/> <circle style="fill:#803300;stroke:none;stroke-width:0.042794;stroke-linecap:round;stroke-linejoin:round;stroke-miterlimit:4;stroke-dasharray:none;paint-order:stroke fill markers" id="path4015-07-64" cx="5.2583127" cy="5.810142" r="0.075462364"/> </g> </g> </svg>